<?xml version="1.0" encoding="utf-8"?>
<svg xmlns="http://www.w3.org/2000/svg" viewBox="0 0 500 500">
  <rect width="500" height="500" style="fill: #008a00; stroke-width: 1;"/>
  <title>glass</title>
  <g transform="matrix(0.903922, 0, 0, 0.903922, 24.019335, 29.15344)" style="">
    <path d="M 148.439 207.706 C 137.655 207.706 128.667 219.689 139.451 230.474 L 237.117 328.14 L 237.117 404.835 L 198.172 404.835 C 190.981 404.835 185.587 410.227 185.587 417.417 C 185.587 424.608 190.981 430 198.172 430 L 301.829 430 C 309.02 430 314.412 424.608 314.412 417.417 C 314.412 410.227 309.02 404.835 301.829 404.835 L 262.882 404.835 L 262.882 328.14 L 360.548 230.474 C 371.334 219.689 362.346 207.706 351.56 207.706 L 148.439 207.706 Z M 177.2 232.272 L 322.201 232.272 L 249.7 305.371 L 177.2 232.272 Z" style="stroke-width: 1; fill: rgb(255, 255, 255);"/>
    <g transform="matrix(0.787096, 0, 0, 0.787096, -81.660614, -1.153404)" style="">
      <path d="M 452.846 75.968 C 426.815 75.968 405.692 97.091 405.692 123.122 C 405.692 149.153 426.815 170.275 452.846 170.275 C 478.877 170.275 500 149.153 500 123.122 C 500 97.091 478.877 75.968 452.846 75.968 Z" style="stroke-width: 1; fill: rgb(255, 255, 255);"/>
      <path d="M 371.931 174.842 C 355.892 174.842 342.745 187.901 342.745 204.028 C 342.745 220.155 355.804 233.214 371.931 233.214 C 387.97 233.214 401.117 220.155 401.117 204.028 C 401.117 187.901 387.97 174.842 371.931 174.842 Z" style="stroke-width: 1; fill: rgb(255, 255, 255);"/>
      <path d="M 461.865 206.307 C 448.28 206.307 437.236 217.35 437.236 230.935 C 437.236 244.52 448.28 255.564 461.865 255.564 C 475.45 255.564 486.494 244.52 486.494 230.935 C 486.494 217.35 475.45 206.307 461.865 206.307 Z" style="stroke-width: 1; fill: rgb(255, 255, 255);"/>
    </g>
  </g>
</svg>
